<svg width="278" height="272" viewBox="0 0 278 272" fill="none" xmlns="http://www.w3.org/2000/svg">
<path d="M46 30C46 74 101 128 142 123C184.406 117.829 131 50 46 30Z" fill="#86C644"/>
<path d="M252.546 12.8046C196.292 6.7675 120.688 60.524 122.187 106.806C123.738 154.676 216.832 104.589 252.546 12.8046Z" fill="#54B435"/>
<rect x="135" y="123" width="8" height="149" fill="#8C3333"/>
<path d="M245 132C245 143.598 235.598 153 224 153C212.402 153 203 143.598 203 132C203 120.402 212.402 111 224 111C235.598 111 245 120.402 245 132Z" fill="#279EFF"/>
<path d="M278 154C196.8 179.2 184.333 137.167 179.5 112C185.5 179 203 184.5 158 264.5C164.833 262 181.5 253.4 193.5 239C196 246.667 215 264.3 233 271.5C193.5 218.5 236.333 167.167 278 154Z" fill="#279EFF"/>
<path d="M33 132C33 143.598 42.402 153 54 153C65.598 153 75 143.598 75 132C75 120.402 65.598 111 54 111C42.402 111 33 120.402 33 132Z" fill="#1450A3"/>
<path d="M0 154C81.2 179.2 93.6667 137.167 98.5 112C92.5 179 75 184.5 120 264.5C113.167 262 96.5 253.4 84.5 239C82 246.667 63 264.3 45 271.5C84.5 218.5 41.6667 167.167 0 154Z" fill="#1450A3"/>
</svg>
